<?xml version="1.0" standalone="no"?>
<!DOCTYPE svg PUBLIC "-//W3C//DTD SVG 20010904//EN"
 "http://www.w3.org/TR/2001/REC-SVG-20010904/DTD/svg10.dtd">
<svg version="1.0" xmlns="http://www.w3.org/2000/svg"
 width="500.000000pt" height="219.000000pt" viewBox="0 0 500.000000 219.000000"
 preserveAspectRatio="xMidYMid meet">

<g transform="translate(0.000000,219.000000) scale(0.100000,-0.100000)"
fill="#000000" stroke="none">
<path d="M915 2169 c-16 -5 -52 -13 -80 -17 l-50 -7 -3 -113 -3 -112 -63 -30
c-35 -17 -66 -30 -70 -30 -4 0 -40 27 -79 61 -40 34 -78 63 -85 66 -7 3 -31
-12 -55 -33 -23 -22 -58 -52 -77 -68 l-34 -28 20 -37 c11 -20 35 -63 53 -97
l34 -60 -36 -48 c-20 -26 -40 -53 -44 -61 -7 -12 -22 -11 -98 6 -50 11 -99 18
-110 17 -14 -2 -28 -27 -55 -98 l-35 -95 83 -51 c46 -29 88 -56 93 -61 5 -5 7
-40 3 -80 l-7 -71 -101 -33 c-55 -18 -103 -35 -105 -36 -4 -3 17 -164 25 -194
4 -14 25 -18 114 -24 107 -7 108 -8 115 -34 3 -14 16 -46 27 -69 l21 -44 -73
-73 c-40 -40 -71 -77 -69 -83 7 -18 114 -161 121 -161 5 -1 48 17 97 39 49 22
93 40 97 40 7 0 91 -64 151 -114 1 -1 -7 -46 -18 -100 -11 -54 -18 -103 -17
-108 3 -9 169 -78 188 -78 4 0 34 41 66 90 56 88 59 90 89 84 16 -4 66 -10
110 -13 l80 -6 39 -97 c27 -68 44 -98 55 -98 9 0 57 9 107 21 l90 21 -4 109
-5 109 49 20 c27 12 50 23 51 24 3 3 -46 116 -53 125 -2 2 -30 -8 -61 -22
-116 -51 -169 -62 -308 -61 -113 1 -141 4 -211 27 -133 44 -209 91 -310 192
-76 77 -98 106 -136 186 -59 121 -82 217 -80 339 1 112 30 245 52 245 10 0 16
-12 18 -34 4 -40 28 -81 48 -81 18 0 17 5 0 33 -19 29 -29 67 -19 67 10 0 56
-98 58 -123 3 -31 31 -50 74 -50 24 0 42 -5 45 -13 3 -8 14 -14 23 -14 10 0
30 -13 45 -30 16 -18 36 -30 51 -30 33 0 44 -39 18 -60 -10 -8 -21 -30 -25
-49 -5 -27 -1 -40 24 -71 17 -21 30 -42 30 -47 0 -4 16 -17 35 -27 34 -19 35
-21 36 -80 0 -34 5 -83 10 -111 6 -27 13 -68 17 -90 13 -72 62 -135 107 -135
20 0 20 26 0 34 -11 4 -14 13 -10 29 5 17 2 26 -10 31 -15 5 -15 9 -4 23 11
13 11 17 2 20 -22 8 -14 20 17 26 39 8 104 94 104 139 1 28 5 33 28 36 35 4
58 36 58 82 0 19 9 46 20 60 23 30 25 50 5 50 -8 0 -19 9 -25 20 -8 15 -21 20
-51 20 -54 0 -75 13 -82 50 -5 23 -12 30 -30 30 -14 0 -35 13 -50 30 -23 26
-30 28 -47 18 -15 -10 -22 -9 -38 5 -25 23 -60 21 -81 -4 -15 -18 -22 -20 -47
-12 -23 7 -30 16 -32 41 -2 20 -10 33 -23 37 -15 5 -18 12 -12 32 l6 27 -31
-22 c-37 -27 -58 -28 -72 -3 -25 47 40 111 113 111 30 0 40 -4 44 -20 3 -11
12 -20 20 -20 10 0 13 6 9 16 -8 22 176 204 207 205 12 0 16 3 10 6 -17 6 -17
33 0 33 7 0 18 -5 23 -10 14 -14 74 -1 81 18 4 8 -1 19 -10 24 -10 5 -17 18
-17 29 0 15 -5 18 -24 13 -18 -4 -25 -1 -29 16 -4 17 -12 21 -34 18 -22 -2
-29 -9 -31 -31 -2 -15 -13 -32 -25 -38 -12 -7 -26 -18 -30 -25 -12 -21 -27
-17 -27 6 0 13 -7 20 -18 20 -21 0 -42 18 -42 37 0 7 20 23 46 35 37 18 47 20
53 9 10 -15 31 -7 31 12 0 16 47 37 82 37 34 0 36 -15 6 -31 l-23 -12 28 -8
c18 -5 38 -2 57 8 29 14 40 33 20 33 -5 0 -10 6 -10 14 0 19 -65 43 -101 38
-20 -3 -33 -12 -39 -28 -5 -13 -14 -24 -19 -24 -17 0 -23 20 -11 35 11 13 7
15 -19 15 -31 0 -42 -14 -18 -23 14 -6 -36 -27 -64 -27 -10 0 -19 5 -19 10 0
6 8 10 19 10 10 0 24 7 32 16 11 14 9 15 -22 9 -27 -5 -38 -2 -52 13 -17 19
-16 20 40 40 97 36 219 55 298 49 264 -23 485 -158 606 -372 l29 -52 48 9 c26
5 57 11 70 14 l22 4 -21 41 c-11 23 -17 45 -12 48 4 4 39 31 76 60 46 36 65
57 59 65 -5 6 -31 40 -57 76 -27 36 -52 69 -57 75 -5 5 -43 -8 -97 -35 l-89
-43 -60 49 c-33 27 -67 54 -76 59 -15 9 -14 19 7 121 l23 110 -91 37 c-50 20
-96 37 -101 37 -5 0 -30 -32 -54 -71 -77 -122 -58 -112 -188 -98 -66 7 -112
17 -112 23 -1 6 -16 49 -34 96 -37 92 -47 99 -111 79z m-165 -460 c0 -5 10 -9
22 -9 15 0 19 -3 12 -10 -7 -7 -19 -8 -35 -1 -13 5 -33 12 -44 16 -15 5 -16 8
-6 14 15 10 51 3 51 -10z"/>
<path d="M1072 1498 c3 -7 15 -14 29 -16 23 -2 23 -2 5 13 -24 18 -39 20 -34
3z"/>
<path d="M4745 1360 c-16 -11 -25 -20 -20 -20 6 0 24 9 40 20 17 11 26 20 20
20 -5 0 -23 -9 -40 -20z"/>
<path d="M1320 1200 l0 -120 78 2 77 2 -72 3 -73 4 0 49 0 50 55 0 c30 0 55 5
55 10 0 6 -25 10 -55 10 l-55 0 0 50 0 49 68 4 67 3 -72 2 -73 2 0 -120z"/>
<path d="M1520 1300 c-44 -44 -16 -94 60 -106 62 -9 80 -21 80 -49 0 -58 -90
-78 -135 -29 -14 15 -25 22 -25 15 0 -27 40 -51 88 -51 53 0 64 5 81 37 24 47
-25 93 -101 93 -26 0 -59 36 -51 57 17 50 89 59 128 17 14 -15 25 -22 25 -15
0 27 -40 51 -85 51 -32 0 -51 -6 -65 -20z"/>
<path d="M1739 1301 c-22 -17 -24 -27 -24 -99 0 -103 14 -122 91 -122 46 0 56
3 70 25 9 14 14 28 12 31 -3 2 -13 -7 -22 -21 -13 -20 -24 -25 -60 -25 -63 0
-76 19 -76 113 0 67 3 78 22 91 35 25 85 20 113 -10 14 -15 25 -22 25 -15 0
47 -105 69 -151 32z"/>
<path d="M1930 1227 c0 -80 3 -98 21 -121 17 -22 28 -26 69 -26 78 0 90 20 88
144 l-2 101 -5 -97 c-7 -113 -21 -138 -81 -138 -59 0 -70 21 -70 128 0 50 -4
94 -10 97 -6 4 -10 -28 -10 -88z"/>
<path d="M2164 1307 c-2 -7 -3 -60 -2 -118 l3 -104 75 -1 75 -1 -67 4 -68 4 0
49 0 50 55 0 c30 0 55 5 55 10 0 6 -25 10 -55 10 l-55 0 0 50 0 49 68 4 67 3
-73 2 c-52 1 -74 -2 -78 -11z"/>
<path d="M2362 1203 l-2 -123 73 2 72 2 -67 3 -67 4 -4 117 -3 117 -2 -122z"/>
<path d="M2559 1208 c-24 -62 -45 -116 -47 -120 -2 -5 0 -8 6 -8 5 0 15 18 22
40 l13 40 58 0 57 0 16 -41 c9 -23 19 -39 22 -37 7 7 -82 232 -93 235 -5 2
-29 -47 -54 -109z m95 -15 c7 -22 5 -23 -43 -23 l-51 0 19 48 c10 26 21 56 25
67 7 17 10 13 26 -25 9 -25 21 -55 24 -67z"/>
<path d="M2820 1200 l0 -122 66 4 c86 5 103 25 104 115 0 88 -24 115 -108 121
l-62 4 0 -122z m138 74 c21 -24 24 -35 20 -86 -5 -74 -21 -90 -92 -96 l-56 -4
0 104 c0 58 3 108 8 112 4 4 27 6 52 3 32 -4 51 -12 68 -33z"/>
<path d="M3040 1200 l0 -120 78 2 77 2 -72 3 -73 4 0 49 0 50 60 0 c33 0 60 4
60 10 0 6 -27 10 -61 10 l-60 0 3 48 3 47 65 6 65 6 -72 1 -73 2 0 -120z"/>
<path d="M3317 1313 c-11 -10 -8 -221 3 -228 6 -4 10 37 10 114 0 67 -1 121
-3 121 -2 0 -7 -3 -10 -7z"/>
<path d="M3392 1198 l2 -123 3 109 4 109 70 -101 c38 -56 74 -104 79 -107 6
-4 9 40 8 117 l-2 123 -5 -108 -6 -109 -73 106 c-40 58 -75 106 -77 106 -3 0
-4 -55 -3 -122z"/>
<path d="M3639 1301 c-20 -16 -24 -30 -27 -92 -3 -64 -1 -78 18 -101 18 -24
29 -28 71 -28 63 0 89 23 89 80 l0 40 -46 0 c-27 0 -43 -4 -39 -10 3 -5 22
-10 41 -10 30 0 34 -3 34 -25 0 -37 -33 -65 -78 -65 -59 0 -72 21 -72 113 0
67 3 78 22 91 35 25 85 20 113 -10 14 -15 25 -22 25 -15 0 47 -105 69 -151 32z"/>
<path d="M3840 1200 l0 -120 78 2 77 2 -70 5 -70 6 -3 48 -3 47 60 0 c34 0 61
4 61 10 0 6 -27 10 -61 10 l-60 0 3 48 3 47 65 6 65 6 -72 1 -73 2 0 -120z"/>
<path d="M4030 1201 c0 -74 4 -121 10 -121 6 0 11 43 12 105 0 58 1 110 2 117
1 6 -5 13 -11 16 -10 3 -13 -25 -13 -117z"/>
<path d="M4198 1213 l-3 -108 -64 92 c-36 51 -67 90 -70 88 -6 -7 130 -205
141 -205 4 0 8 54 8 120 0 66 -2 120 -5 120 -2 0 -6 -48 -7 -107z"/>
<path d="M4274 1200 c0 -69 1 -97 3 -62 2 34 2 90 0 125 -2 34 -3 6 -3 -63z"/>
<path d="M4340 1200 l0 -120 78 2 77 2 -72 3 -73 4 0 49 0 50 60 0 c33 0 60 4
60 10 0 6 -27 10 -61 10 l-60 0 3 48 3 47 65 6 65 6 -72 1 -73 2 0 -120z"/>
<path d="M4532 1199 c1 -68 3 -100 5 -71 l4 52 49 0 c50 0 50 0 76 -51 14 -28
28 -49 31 -46 3 3 -6 27 -20 52 l-26 45 25 25 c27 27 30 61 8 90 -11 15 -29
20 -84 23 l-70 4 2 -123z m122 101 c21 -8 26 -16 26 -43 0 -46 -15 -57 -82
-57 l-58 0 0 48 c0 27 3 52 7 55 10 10 78 8 107 -3z"/>
<path d="M4754 1200 c0 -69 1 -97 3 -62 2 34 2 90 0 125 -2 34 -3 6 -3 -63z"/>
<path d="M4881 1298 c-5 -13 -25 -63 -45 -112 -20 -49 -35 -94 -33 -100 2 -5
11 9 20 32 l17 42 56 0 56 0 15 -40 c9 -22 20 -40 25 -40 4 0 1 17 -8 38 -8
20 -30 74 -47 119 -18 46 -35 83 -40 83 -4 0 -11 -10 -16 -22z m43 -66 l25
-62 -50 0 c-27 0 -49 3 -49 7 0 11 44 122 47 119 2 -2 14 -31 27 -64z"/>
<path d="M1807 930 c-45 -8 -87 -37 -104 -71 -8 -15 -13 -66 -13 -133 l0 -108
33 -33 c74 -74 220 -68 271 10 24 37 17 56 -29 72 -38 13 -40 13 -58 -12 -24
-32 -90 -36 -107 -6 -17 32 -13 157 6 175 25 26 79 20 101 -10 18 -25 21 -25
61 -13 33 10 42 17 42 35 0 27 -52 82 -83 88 -54 11 -85 12 -120 6z"/>
<path d="M2565 930 c-11 -4 -31 -20 -45 -35 -24 -25 -25 -33 -25 -140 0 -133
13 -161 84 -184 64 -20 123 -8 160 35 17 19 31 39 31 44 0 19 -25 10 -35 -12
-6 -13 -27 -31 -48 -41 -47 -23 -110 -15 -144 19 -21 21 -23 31 -23 134 0 110
0 112 29 141 24 23 38 29 75 29 62 0 92 -14 111 -50 9 -17 20 -28 26 -24 14 8
-22 66 -52 81 -27 14 -113 16 -144 3z"/>
<path d="M2879 923 c-43 -26 -53 -52 -57 -149 -7 -143 21 -196 111 -209 60 -9
116 12 144 54 20 29 23 47 23 128 0 110 -15 155 -59 177 -39 21 -128 20 -162
-1z m151 -18 c40 -21 53 -69 48 -178 -4 -83 -6 -92 -31 -113 -59 -50 -158 -37
-190 26 -15 28 -17 53 -15 129 4 91 5 94 36 122 26 23 42 29 78 29 25 0 58 -7
74 -15z"/>
<path d="M3235 930 c-48 -19 -68 -56 -73 -134 -7 -107 4 -164 37 -197 34 -34
103 -47 156 -29 33 11 39 10 59 -9 29 -28 43 -14 15 15 -20 21 -20 24 -5 46
12 17 16 47 16 126 0 116 -12 152 -60 177 -31 16 -112 19 -145 5z m134 -24
c39 -21 51 -56 51 -154 0 -102 -12 -130 -63 -155 -47 -23 -110 -15 -144 19
-21 21 -23 31 -23 134 0 110 0 112 29 141 24 24 38 29 76 29 25 0 58 -6 74
-14z"/>
<path d="M3522 786 l3 -156 30 -30 c40 -40 113 -50 165 -23 58 30 70 68 70
220 0 77 -4 134 -10 138 -6 4 -10 -42 -10 -132 0 -157 -7 -179 -63 -207 -49
-23 -100 -15 -139 24 l-28 28 0 141 c0 89 -4 142 -11 146 -7 5 -9 -40 -7 -149z"/>
<path d="M3877 934 c-4 -4 -7 -88 -7 -186 0 -139 3 -179 13 -176 9 4 13 50 15
178 2 159 -3 202 -21 184z"/>
<path d="M3987 933 c-11 -11 -8 -363 3 -363 6 0 11 65 12 163 2 117 6 156 13
141 33 -68 121 -214 130 -214 6 0 40 53 75 118 l65 117 3 -162 c1 -100 6 -163
12 -163 7 0 9 66 8 183 -2 113 -7 182 -13 181 -5 0 -39 -53 -76 -117 -36 -64
-68 -119 -71 -122 -3 -4 -38 50 -78 119 -39 69 -73 126 -74 126 -2 0 -6 -3 -9
-7z"/>
<path d="M4395 928 c-3 -7 -4 -90 -3 -183 l3 -170 92 -3 c113 -3 147 10 162
64 12 42 -5 95 -34 112 -16 9 -16 11 4 31 30 30 29 91 -3 127 -22 26 -29 28
-120 32 -76 4 -97 1 -101 -10z m209 -40 c22 -31 20 -74 -4 -98 -17 -17 -33
-20 -100 -20 l-80 0 0 70 0 70 84 0 c76 0 86 -2 100 -22z m0 -159 c20 -15 26
-29 26 -57 0 -66 -27 -82 -134 -82 l-76 0 0 80 0 80 79 0 c64 0 83 -4 105 -21z"/>
<path d="M4784 930 c-58 -23 -83 -110 -69 -237 6 -54 12 -72 34 -94 52 -52
160 -48 212 7 22 23 24 36 27 134 4 122 -7 159 -58 185 -31 16 -112 19 -146 5z
m137 -25 c40 -21 49 -50 49 -153 0 -102 -12 -130 -63 -155 -47 -23 -110 -15
-144 19 -21 21 -23 31 -23 134 0 110 0 112 29 141 24 24 38 29 76 29 25 0 59
-7 76 -15z"/>
<path d="M1317 924 c-4 -4 -7 -66 -7 -138 1 -200 33 -250 165 -250 71 0 117
21 146 67 17 29 19 48 17 177 l-3 145 -47 3 -48 3 0 -128 c0 -149 -9 -173 -64
-173 -19 0 -38 6 -44 13 -7 8 -13 69 -14 148 l-3 134 -45 3 c-25 2 -49 0 -53
-4z"/>
<path d="M2054 917 c-2 -7 -3 -94 -2 -192 l3 -180 45 0 45 0 3 88 c1 48 -2
103 -7 122 -5 20 -6 33 -1 30 5 -3 11 -19 15 -35 4 -17 33 -71 66 -121 l59
-90 48 3 47 3 0 190 0 190 -45 0 -45 0 0 -107 c0 -97 -1 -104 -14 -80 -7 15
-38 64 -67 110 l-54 82 -45 0 c-28 0 -48 -5 -51 -13z"/>
</g>
</svg>
